<?xml version="1.0" standalone="no"?>
<!DOCTYPE svg PUBLIC "-//W3C//DTD SVG 20010904//EN"
 "http://www.w3.org/TR/2001/REC-SVG-20010904/DTD/svg10.dtd">
<svg version="1.0" xmlns="http://www.w3.org/2000/svg"
 width="400.000000pt" height="400.000000pt" viewBox="0 0 400.000000 400.000000"
 preserveAspectRatio="xMidYMid meet">

<g transform="translate(0.000000,400.000000) scale(0.100000,-0.100000)"
fill="#000000" stroke="none">
<path d="M722 3690 c-7 -11 -18 -20 -25 -20 -8 0 -7 4 3 10 13 8 13 10 -2 10
-20 0 -50 -28 -43 -40 3 -5 1 -11 -5 -15 -5 -3 -10 -1 -10 6 0 7 -3 9 -7 6 -3
-4 -12 -2 -20 4 -10 9 -13 7 -13 -12 0 -22 0 -22 -15 -3 -11 14 -14 15 -15 4
0 -11 -2 -12 -8 -3 -4 7 -36 13 -70 15 -34 2 -62 7 -62 12 0 15 -73 -2 -127
-30 -30 -16 -49 -32 -46 -40 3 -8 -14 -16 -54 -23 -68 -13 -119 -37 -150 -68
-12 -13 -29 -23 -38 -23 -13 0 -15 -78 -15 -732 l0 -733 35 -58 c39 -64 44
-89 18 -86 -57 5 -55 16 -50 -198 3 -168 8 -214 29 -308 21 -86 24 -112 14
-120 -7 -5 -16 -19 -20 -30 -8 -19 -9 -19 -16 5 -4 14 -8 -191 -9 -455 l-1
-481 47 -50 c29 -30 66 -86 93 -142 l45 -92 548 0 c436 0 547 3 541 13 -6 9
-4 9 7 0 8 -9 46 -13 111 -13 l98 0 -36 38 c-20 20 -63 70 -97 111 -34 41 -75
85 -92 100 -77 66 -422 424 -471 488 -12 17 -13 16 -14 -4 0 -12 -5 -25 -11
-29 -8 -5 -8 -8 0 -14 7 -4 13 -16 14 -28 1 -14 5 -18 11 -12 13 13 29 13 21
0 -3 -5 -2 -10 4 -10 6 0 8 -7 4 -17 -5 -13 -2 -15 15 -11 18 5 22 2 22 -17 0
-13 8 -28 17 -34 10 -5 15 -13 10 -17 -4 -4 -15 0 -25 9 -30 27 -35 20 -11
-14 15 -21 17 -30 8 -27 -8 2 -24 19 -35 36 -19 27 -23 29 -29 14 -6 -15 -10
-13 -31 13 -13 17 -31 37 -38 45 -51 54 -151 182 -173 220 -14 25 -50 77 -79
115 -29 39 -69 92 -89 118 -39 52 -73 71 -158 88 -105 21 -115 27 -42 23 55
-2 62 -1 30 5 -22 5 -31 9 -20 11 18 2 17 3 -5 11 -16 6 12 7 80 4 60 -2 124
-11 150 -20 25 -9 89 -20 143 -25 53 -5 123 -16 155 -24 31 -7 111 -22 177
-31 112 -16 225 -54 225 -76 0 -4 15 -6 33 -5 17 2 41 -3 52 -11 19 -13 19
-13 -3 -13 -12 0 -22 3 -22 8 0 4 -11 7 -25 7 -27 0 -34 -22 -10 -31 8 -4 15
-13 15 -21 0 -8 15 -30 34 -49 34 -34 60 -47 36 -19 -7 9 -10 18 -7 21 8 8
106 -65 118 -88 6 -11 16 -17 23 -15 6 3 23 -5 36 -16 20 -16 21 -19 5 -13
-46 18 -56 16 -49 -6 6 -21 5 -21 -23 3 -17 13 -28 29 -26 34 6 17 -38 59 -47
45 -6 -9 -9 -9 -12 1 -3 8 -8 11 -12 7 -10 -8 36 -98 62 -121 11 -11 37 -61
57 -113 39 -101 68 -134 116 -134 15 0 54 -7 86 -15 68 -18 83 -19 83 -4 0 6
-6 9 -14 6 -10 -4 -14 0 -13 13 1 15 7 18 32 13 16 -4 32 -10 33 -15 2 -4 8
-8 13 -8 6 0 5 9 -2 21 -8 15 -8 19 0 15 6 -4 20 -24 31 -45 16 -32 37 -51 55
-51 2 0 6 14 10 30 8 38 15 38 41 -3 11 -17 32 -50 46 -72 14 -22 37 -53 52
-68 14 -15 26 -31 26 -34 0 -3 8 -12 18 -19 14 -11 15 -15 3 -23 -11 -7 -11
-9 0 -14 10 -4 9 -6 -3 -6 -10 -1 -18 4 -18 9 0 6 -4 16 -10 23 -5 7 -24 32
-42 56 -18 25 -37 44 -41 42 -5 -1 -18 8 -30 21 -23 23 -88 58 -110 58 -8 0
-13 -19 -14 -58 -1 -55 1 -59 33 -80 18 -12 38 -22 43 -22 5 0 12 -6 15 -12 5
-10 7 -10 12 0 4 9 13 7 35 -9 16 -11 39 -21 51 -21 24 -2 70 -27 53 -29 -6
-1 1 -5 15 -9 23 -7 23 -8 3 -9 -33 -2 -39 -21 -6 -21 81 0 186 -75 200 -141
5 -29 6 -29 72 -28 36 1 58 3 48 6 -9 2 -15 8 -12 12 2 5 -6 6 -19 4 -13 -3
-27 0 -31 7 -4 7 -1 10 10 8 15 -2 19 6 22 47 4 39 11 57 36 83 50 52 56 53
153 30 98 -23 121 -35 104 -52 -5 -5 -10 -23 -10 -38 0 -22 6 -29 28 -34 15
-4 40 -13 56 -21 26 -14 28 -14 23 2 -4 9 -3 14 3 10 6 -3 10 2 10 12 0 15 2
16 10 3 10 -16 14 -8 10 24 -1 10 3 15 8 12 14 -9 33 19 26 38 -4 10 0 18 10
22 28 11 27 1 -9 -71 -40 -78 -42 -90 -19 -99 32 -12 392 -6 398 7 3 9 5 9 5
0 1 -10 99 -13 456 -13 l455 0 0 813 0 812 -20 -33 c-11 -18 -20 -37 -20 -42
0 -6 -4 -10 -10 -10 -5 0 -10 -7 -10 -15 0 -8 -4 -15 -10 -15 -5 0 -24 -27
-42 -59 -18 -33 -43 -65 -56 -70 -18 -9 -21 -16 -16 -36 4 -18 2 -27 -10 -31
-9 -4 -16 -18 -16 -33 0 -15 -9 -35 -21 -44 -11 -10 -19 -24 -16 -31 3 -7 -8
-23 -25 -36 -16 -12 -27 -29 -24 -37 3 -7 2 -13 -3 -13 -4 0 -14 -12 -22 -28
-8 -15 -22 -36 -32 -47 -10 -11 -20 -30 -23 -42 -4 -13 -10 -23 -15 -23 -5 0
-9 -9 -9 -20 0 -11 -4 -20 -10 -20 -5 0 -10 -9 -10 -20 0 -10 -16 -34 -35 -53
-19 -19 -35 -39 -35 -46 0 -6 -5 -11 -12 -11 -6 0 -8 -3 -5 -7 4 -3 1 -13 -5
-21 -16 -19 -36 -53 -44 -74 -3 -10 -10 -18 -14 -18 -4 0 -16 -12 -25 -27 -17
-25 -17 -26 1 -19 19 7 19 7 -43 -62 -13 -13 -20 -28 -17 -33 3 -5 -11 -29
-30 -53 -20 -24 -41 -57 -47 -75 -6 -17 -15 -31 -20 -31 -4 0 -20 -25 -34 -55
-15 -30 -31 -55 -37 -55 -6 0 -7 7 -3 18 4 9 16 40 26 67 11 28 24 58 29 67
14 25 12 38 -5 38 -8 0 -15 -6 -15 -12 0 -9 -3 -10 -8 -2 -12 19 -75 23 -100
6 -15 -10 -26 -12 -30 -5 -12 17 -53 35 -68 29 -8 -3 -13 -2 -10 3 3 5 -13 11
-36 15 -22 4 -54 16 -70 28 -21 15 -39 19 -62 15 -28 -4 -38 0 -65 29 -18 19
-41 34 -52 34 -25 0 -71 -23 -88 -44 -23 -27 -38 -18 -50 29 -6 25 -16 45 -21
45 -5 0 -24 12 -42 27 -41 35 -69 51 -122 69 -36 13 -48 13 -109 -2 l-67 -16
-38 38 c-70 72 -117 97 -195 106 -57 6 -74 5 -81 -6 -7 -11 -16 -3 -35 33 -31
56 -174 263 -193 278 -27 22 -65 23 -103 3 -21 -11 -40 -19 -41 -17 -1 1 -4
11 -8 22 -4 16 2 24 34 39 31 15 37 22 29 33 -9 10 -7 13 7 13 11 0 15 3 8 8
-5 4 -18 38 -28 75 -14 52 -22 67 -35 65 -9 -2 -22 7 -29 21 -11 21 -10 27 8
43 11 11 43 26 70 34 50 15 66 38 35 50 -8 4 -15 14 -15 24 0 10 -9 22 -20 25
-11 3 -20 11 -20 16 0 5 -10 9 -21 9 -18 0 -19 2 -9 15 7 8 18 15 24 14 27 -3
54 13 49 29 -4 10 -2 13 5 8 8 -5 12 1 12 18 0 13 5 26 11 28 20 7 -4 39 -32
45 -37 7 -40 13 -30 50 11 39 35 67 88 100 23 14 41 31 40 37 -1 6 3 10 9 9
19 -3 15 62 -6 85 -11 11 -20 26 -20 32 0 6 -11 26 -25 44 -14 18 -25 46 -25
61 0 16 -7 37 -17 47 -11 12 -12 18 -4 18 8 0 5 9 -8 23 -11 12 -32 36 -46 52
-22 26 -25 27 -25 10 0 -12 -19 -34 -45 -54 -25 -18 -45 -37 -45 -42 0 -16
-25 -9 -43 11 -9 11 -17 27 -17 35 0 9 -35 37 -77 64 -43 27 -84 54 -90 61 -7
6 -13 7 -13 3 -1 -4 -8 1 -18 13 -10 11 -32 25 -50 32 -28 9 -33 9 -42 -8 -5
-10 -10 -25 -10 -34 0 -8 -4 -18 -10 -21 -6 -4 -7 6 -4 25 4 19 2 30 -5 30 -6
0 -11 7 -11 15 0 9 9 15 23 15 13 0 28 5 35 12 8 8 12 8 12 1 0 -6 8 -13 18
-16 9 -2 25 -8 35 -12 16 -7 17 -4 11 20 -9 36 17 30 27 -6 5 -18 7 -11 8 24
1 27 -3 47 -10 47 -5 0 -7 -4 -4 -10 3 -6 -1 -7 -9 -4 -14 5 -14 8 0 21 20 20
134 19 193 -1 24 -9 45 -16 46 -16 2 0 -3 14 -11 30 -9 17 -20 30 -25 30 -5 0
-9 6 -9 14 0 18 -63 40 -95 33 -14 -2 -26 0 -27 5 -2 6 -16 11 -31 11 -25 2
-31 9 -28 30 0 4 -10 7 -24 7 -14 0 -25 6 -26 13 -1 20 -7 50 -18 92 -7 28 -7
50 0 73 6 18 8 39 5 47 -3 8 -1 15 4 15 6 0 5 9 -2 20 -10 16 -10 24 0 40 7
12 8 20 2 20 -14 0 -13 33 2 48 7 7 20 12 30 12 10 0 18 6 18 14 0 11 14 13
66 8 42 -3 73 0 88 8 18 9 29 9 44 1 11 -6 29 -11 40 -11 11 0 22 -7 26 -15 3
-8 13 -15 22 -15 13 0 15 5 8 28 -4 15 -8 41 -9 57 -1 17 -5 38 -9 47 -4 9 -5
21 -2 27 4 5 -3 12 -14 16 -11 3 -20 11 -20 16 0 5 -6 9 -14 9 -8 0 -18 5 -21
11 -5 7 6 8 32 4 32 -4 34 -4 14 5 -23 10 -23 11 -5 25 19 13 18 14 -3 34 -12
12 -29 21 -37 21 -25 0 -46 12 -46 26 0 8 5 14 11 14 5 0 7 -4 4 -10 -3 -5 1
-10 10 -10 14 0 14 2 -1 24 -16 26 -47 25 -37 0 3 -8 1 -14 -4 -14 -20 0 -22
14 -6 32 14 15 15 21 4 27 -10 6 -10 10 -2 16 9 5 9 10 0 21 -10 12 -14 12
-26 -3 -13 -17 -14 -16 -10 5 4 15 0 25 -9 29 -8 3 -14 15 -14 28 0 18 -4 22
-20 18 -14 -4 -23 2 -31 21 -7 14 -19 26 -26 26 -8 0 -12 4 -9 8 3 4 -10 7
-27 6 -18 -1 -36 3 -40 9 -6 8 -7 8 -5 -2 2 -8 22 -20 44 -26 29 -9 35 -14 22
-19 -9 -4 -26 -2 -38 4 -12 6 -24 9 -27 7 -2 -3 5 -8 16 -12 23 -7 28 -30 9
-41 -6 -4 -16 0 -22 8 -6 8 -19 17 -30 21 -11 4 -16 13 -12 22 6 18 -7 19 -36
4 -14 -8 -22 -8 -27 0 -4 5 -24 18 -46 26 -26 12 -34 19 -26 25 13 8 -15 15
-89 23 -22 3 -24 2 -5 -1 30 -5 30 -5 5 -12 -14 -4 -42 -1 -64 7 -51 17 -59
17 -74 -7z m283 -80 c3 -5 1 -10 -4 -10 -6 0 -11 5 -11 10 0 6 2 10 4 10 3 0
8 -4 11 -10z m237 -38 c10 -18 16 -38 13 -43 -4 -5 -1 -9 4 -9 6 0 11 -5 11
-12 0 -7 -16 3 -35 22 -19 19 -35 29 -35 22 0 -7 4 -12 9 -12 5 0 11 -6 14
-14 9 -23 -26 -8 -46 20 -18 24 -18 26 -1 45 24 26 44 21 66 -19z m-765 6 c-3
-8 -6 -5 -6 6 -1 11 2 17 5 13 3 -3 4 -12 1 -19z m371 5 c-10 -2 -26 -2 -35 0
-10 3 -2 5 17 5 19 0 27 -2 18 -5z m7 -43 c8 -13 -5 -13 -25 0 -13 8 -13 10 2
10 9 0 20 -4 23 -10z m458 -150 c-20 -23 -33 -26 -33 -6 0 13 13 20 42 25 4 0
0 -8 -9 -19z m17 -1083 c33 -4 33 -4 -7 -5 -35 -2 -43 1 -43 16 0 11 3 13 8 5
4 -6 23 -13 42 -16z m-169 -183 c40 -41 92 -66 159 -77 14 -2 2 -5 -26 -6 -54
-1 -98 23 -152 82 -24 26 -72 144 -72 175 1 9 12 -16 25 -57 18 -56 34 -85 66
-117z m-100 69 c-12 -20 -14 -14 -5 12 4 9 9 14 11 11 3 -2 0 -13 -6 -23z m34
-44 c11 -17 -1 -21 -15 -4 -8 9 -8 15 -2 15 6 0 14 -5 17 -11z m90 -94 l30
-28 -32 22 c-18 12 -35 26 -38 32 -4 5 -11 6 -17 3 -7 -5 -8 -2 -3 6 5 9 2 10
-14 5 -22 -7 -30 10 -8 18 12 4 26 -5 82 -58z m-31 -14 c-2 -3 -12 3 -22 13
-16 17 -16 18 5 5 12 -7 20 -15 17 -18z m40 -26 c6 -17 37 -21 34 -4 -2 7 13
12 37 12 27 1 39 -3 38 -11 -2 -7 1 -12 6 -12 4 0 11 -24 14 -52 4 -29 16 -65
28 -81 l21 -29 -23 -24 c-13 -14 -28 -23 -34 -20 -7 2 -18 -4 -26 -15 -7 -10
-24 -19 -36 -19 -13 0 -23 -6 -23 -14 0 -8 -8 -24 -19 -37 l-18 -23 -24 37
c-13 20 -29 37 -35 37 -11 0 -19 29 -30 118 -4 28 -11 42 -21 42 -13 0 -13 3
-3 15 11 13 14 13 26 -2 12 -16 13 -15 14 15 0 28 3 32 28 32 36 0 44 8 31 31
-6 11 -6 19 0 19 5 0 11 -7 15 -15z m166 -882 c-15 -45 -70 -122 -87 -123 -17
0 -17 17 0 23 8 3 14 23 15 48 2 49 23 86 55 98 28 11 32 0 17 -46z m214 -136
c-3 -9 -10 -17 -15 -17 -4 0 -6 7 -3 15 4 9 0 15 -7 15 -11 0 -11 2 1 10 19
12 33 -1 24 -23z m-204 -28 c6 -10 10 -30 10 -46 -1 -26 -2 -25 -15 12 -8 22
-19 41 -25 43 -5 2 -10 8 -10 13 0 14 30 -2 40 -22z m527 -161 c-3 -8 -6 -5
-6 6 -1 11 2 17 5 13 3 -3 4 -12 1 -19z m-476 -70 c12 -22 10 -22 -30 -2 -21
11 -30 21 -27 31 3 8 6 20 6 26 0 12 32 -23 51 -55z m34 -28 c3 -5 1 -10 -4
-10 -6 0 -11 5 -11 10 0 6 2 10 4 10 3 0 8 -4 11 -10z m800 0 c-3 -5 -21 -9
-38 -9 l-32 1 30 8 c43 11 47 11 40 0z m-1449 -11 c3 -6 1 -16 -5 -22 -9 -9
-10 -7 -5 7 5 13 4 17 -4 12 -7 -4 -12 -2 -12 3 0 14 17 14 26 0z m744 -40
c33 -29 33 -30 5 -13 -34 20 -60 44 -48 44 4 0 24 -14 43 -31z m110 -89 c18
-16 20 -20 5 -12 -27 15 -75 58 -75 67 0 8 11 -1 70 -55z m-750 14 c0 -2 -9
-4 -20 -4 -11 0 -20 4 -20 9 0 5 9 7 20 4 11 -3 20 -7 20 -9z m-71 -84 c11 -8
53 -70 47 -70 -13 0 -97 111 -91 120 4 7 13 1 22 -17 8 -15 17 -30 22 -33z
m104 -10 c16 -22 24 -40 18 -40 -6 0 -11 4 -11 9 0 5 -12 23 -26 40 -14 17
-22 31 -17 31 4 0 21 -18 36 -40z m52 -61 c11 -16 1 -19 -13 -3 -7 8 -8 14 -3
14 5 0 13 -5 16 -11z m-56 -53 c-2 -2 -13 8 -23 22 l-19 27 24 -22 c12 -12 21
-24 18 -27z m121 -129 c-3 -2 -23 17 -44 42 l-40 46 44 -42 c24 -23 42 -44 40
-46z m945 57 c16 -12 17 -16 6 -23 -19 -12 -38 -4 -44 20 -6 23 10 24 38 3z
m191 -52 c-4 -3 -14 2 -24 12 -16 18 -16 18 6 6 13 -6 21 -14 18 -18z m30 -27
c5 -5 13 -18 17 -27 5 -15 1 -17 -23 -14 -36 4 -63 24 -56 43 3 7 -1 13 -10
13 -8 0 -13 4 -10 9 7 10 64 -7 82 -24z m944 29 c0 -13 -42 -74 -51 -74 -14 0
-11 11 14 47 20 30 37 42 37 27z m-1173 -40 c-3 -3 -12 -4 -19 -1 -8 3 -5 6 6
6 11 1 17 -2 13 -5z m143 -4 c0 -5 -4 -10 -10 -10 -5 0 -10 5 -10 10 0 6 5 10
10 10 6 0 10 -4 10 -10z m-983 -58 c57 -58 97 -102 92 -102 -2 0 -34 29 -69
65 -35 36 -61 65 -58 65 4 0 20 -13 35 -28z m1543 -12 c0 -5 -5 -10 -11 -10
-5 0 -7 5 -4 10 3 6 8 10 11 10 2 0 4 -4 4 -10z m390 -49 c0 -5 -7 -11 -15
-15 -15 -5 -20 5 -8 17 9 10 23 9 23 -2z m-1722 -56 c-3 -3 -9 2 -12 12 -6 14
-5 15 5 6 7 -7 10 -15 7 -18z"/>
<path d="M2190 220 c0 -5 5 -10 10 -10 6 0 10 5 10 10 0 6 -4 10 -10 10 -5 0
-10 -4 -10 -10z"/>
<path d="M990 3671 c0 -12 46 -41 54 -34 11 12 6 23 -11 23 -15 0 -16 2 -3 10
12 8 9 10 -12 10 -16 0 -28 -4 -28 -9z"/>
<path d="M1448 3513 c7 -3 16 -2 19 1 4 3 -2 6 -13 5 -11 0 -14 -3 -6 -6z"/>
<path d="M1520 3496 c0 -2 8 -10 18 -17 15 -13 16 -12 3 4 -13 16 -21 21 -21
13z"/>
<path d="M1430 3444 c0 -8 5 -12 10 -9 6 4 8 11 5 16 -9 14 -15 11 -15 -7z"/>
<path d="M1449 3415 c0 -11 -3 -14 -6 -7 -2 6 -9 12 -14 12 -18 0 -8 -15 21
-32 35 -20 35 -20 15 18 -12 24 -15 26 -16 9z"/>
<path d="M1551 3376 c-13 -47 -34 -74 -31 -40 4 35 -2 49 -9 24 -4 -14 -4 -30
0 -36 5 -6 10 -27 11 -47 3 -43 7 -45 31 -12 14 19 17 40 15 91 l-3 67 -14
-47z"/>
<path d="M1569 3223 c-1 -16 0 -32 2 -38 1 -5 3 -22 2 -37 0 -19 5 -26 17 -25
11 1 16 7 12 16 -3 9 -1 12 6 7 7 -4 12 -3 12 3 0 5 -5 13 -11 17 -6 3 -9 17
-6 30 2 13 -1 22 -7 21 -6 -1 -10 6 -8 16 2 9 -2 17 -8 17 -5 0 -11 -12 -11
-27z"/>
<path d="M1615 3104 c-11 -17 -12 -25 -4 -22 6 2 16 14 20 26 11 29 5 28 -16
-4z"/>
<path d="M1520 3080 c0 -5 5 -10 10 -10 6 0 10 5 10 10 0 6 -4 10 -10 10 -5 0
-10 -4 -10 -10z"/>
<path d="M1632 3073 c-15 -27 -15 -43 -1 -43 5 0 7 5 3 12 -5 8 -2 9 9 5 18
-7 20 -2 8 28 -8 19 -8 19 -19 -2z"/>
<path d="M1580 3046 c0 -2 7 -7 16 -10 8 -3 12 -2 9 4 -6 10 -25 14 -25 6z"/>
<path d="M1605 2955 c8 -21 15 -39 15 -42 0 -2 5 -1 10 2 18 11 10 40 -16 58
l-25 19 16 -37z"/>
<path d="M1665 2563 c-26 -5 -51 -41 -37 -55 11 -11 122 0 122 11 0 10 -29 48
-30 38 0 -4 -8 -4 -17 1 -10 4 -27 7 -38 5z"/>
<path d="M1650 2470 c-9 -6 -10 -10 -3 -10 6 0 15 5 18 10 8 12 4 12 -15 0z"/>
<path d="M1687 2460 c-21 -17 -30 -18 -53 -10 -15 6 -29 8 -32 6 -3 -3 4 -8
14 -11 10 -4 27 -11 37 -16 11 -6 20 -9 20 -7 1 2 13 15 26 31 29 32 24 35
-12 7z"/>
<path d="M1520 2421 c0 -6 14 -11 30 -11 17 0 30 -4 30 -8 0 -4 15 -24 34 -44
27 -28 36 -33 40 -21 8 21 7 71 -1 76 -20 12 -133 18 -133 8z"/>
<path d="M1671 2316 c-10 -12 -8 -13 9 -9 25 7 37 23 17 23 -8 0 -20 -6 -26
-14z"/>
<path d="M1641 1704 c0 -11 3 -14 6 -6 3 7 2 16 -1 19 -3 4 -6 -2 -5 -13z"/>
<path d="M691 834 c0 -11 3 -14 6 -6 3 7 2 16 -1 19 -3 4 -6 -2 -5 -13z"/>
<path d="M710 811 c0 -6 4 -13 10 -16 6 -3 7 1 4 9 -7 18 -14 21 -14 7z"/>
<path d="M680 702 c6 -13 14 -21 18 -18 3 4 -2 14 -12 24 -18 16 -18 16 -6 -6z"/>
<path d="M3040 516 c14 -8 21 -15 17 -16 -5 0 -2 -7 7 -15 16 -16 41 -11 50
10 7 18 -2 23 -55 30 -43 6 -43 6 -19 -9z"/>
<path d="M1650 480 c0 -13 38 -32 50 -25 6 4 8 11 4 16 -3 5 -9 7 -14 4 -5 -3
-11 -1 -15 5 -8 13 -25 13 -25 0z"/>
<path d="M1650 359 c0 -5 5 -7 10 -4 6 3 10 8 10 11 0 2 -4 4 -10 4 -5 0 -10
-5 -10 -11z"/>
<path d="M1681 354 c0 -11 3 -14 6 -6 3 7 2 16 -1 19 -3 4 -6 -2 -5 -13z"/>
<path d="M0 132 l0 -133 79 2 80 2 -49 96 c-27 53 -63 112 -79 131 l-30 35 -1
-133z"/>
<path d="M1840 224 c0 -13 51 -54 68 -54 13 0 12 5 -8 21 -34 26 -60 41 -60
33z"/>
<path d="M1655 69 c-4 -6 -5 -12 -2 -15 2 -3 7 2 10 11 7 17 1 20 -8 4z"/>
<path d="M2281 71 c-11 -7 -8 -13 13 -26 15 -10 25 -24 22 -31 -9 -24 35 -16
71 12 42 32 38 39 -11 19 -33 -14 -38 -14 -52 0 -9 8 -20 15 -25 15 -6 0 -7 5
-4 10 8 12 4 12 -14 1z"/>
<path d="M2651 44 c0 -11 3 -14 6 -6 3 7 2 16 -1 19 -3 4 -6 -2 -5 -13z"/>
<path d="M1686 34 c-3 -9 -4 -19 -1 -23 8 -14 63 -10 69 4 5 14 -29 15 -52 1
-16 -9 -16 6 0 22 8 8 8 12 1 12 -6 0 -14 -7 -17 -16z"/>
<path d="M1771 11 c-10 -7 -7 -9 12 -8 14 1 23 5 20 10 -6 9 -15 9 -32 -2z"/>
</g>
</svg>
